# xmcd
#
# Track frame offsets: 
#        150
#        12805
#        27897
#        47376
#        63768
#        81639
#        96189
#        117143
#        133259
#        145148
#        154655
#        166295
#        179431
#        193189
#        204563
#        221994
#        238747
#        251318
#
# Disc length: 3504 seconds
#
# Revision: 0
# Processed by: cddbd v1.5.2PL0 Copyright (c) Steve Scherf et al.
# Submitted via: ExactAudioCopy v0.99pb4
#
DISCID=fc0dae12
DTITLE=Tom Astor and Friends - Duette
DYEAR=2007
DGENRE=Country
TTITLE0=I can help
TTITLE1=I need more of you
TTITLE2=Johnny Cash Hit Medley
TTITLE3=We are the same
TTITLE4=I´ve always been crazy
TTITLE5=I´m getting good at missing you
TTITLE6=Me and Bobby McGee
TTITLE7=Trail of Tears
TTITLE8=Perhaps Love
TTITLE9=Rocky Top
TTITLE10=The Last Time
TTITLE11=Honky Tonk Song
TTITLE12=Rocky Mountain Man
TTITLE13=Two Stories Wide
TTITLE14=Young Eagle
TTITLE15=Mansion on the Hill
TTITLE16=Old Mountain Dew
TTITLE17=One Night
EXTD=
EXTT0=
EXTT1=
EXTT2=
EXTT3=
EXTT4=
EXTT5=
EXTT6=
EXTT7=
EXTT8=
EXTT9=
EXTT10=
EXTT11=
EXTT12=
EXTT13=
EXTT14=
EXTT15=
EXTT16=
EXTT17=
PLAYORDER=
